<svg width="64" height="164" viewBox="0 0 64 164" fill="none" xmlns="http://www.w3.org/2000/svg">
<g clip-path="url(#clip0_113_1207)">
<path d="M4 2C4 3.10457 3.10457 4 2 4C0.895431 4 0 3.10457 0 2C0 0.895431 0.895431 0 2 0C3.10457 0 4 0.895431 4 2Z" fill="#E6EEEF"/>
<path d="M24 2C24 3.10457 23.1046 4 22 4C20.8954 4 20 3.10457 20 2C20 0.895431 20.8954 0 22 0C23.1046 0 24 0.895431 24 2Z" fill="#E6EEEF"/>
<path d="M44 2C44 3.10457 43.1046 4 42 4C40.8954 4 40 3.10457 40 2C40 0.895431 40.8954 0 42 0C43.1046 0 44 0.895431 44 2Z" fill="#E6EEEF"/>
<path d="M64 2C64 3.10457 63.1046 4 62 4C60.8954 4 60 3.10457 60 2C60 0.895431 60.8954 0 62 0C63.1046 0 64 0.895431 64 2Z" fill="#E6EEEF"/>
<path d="M4 22C4 23.1046 3.10457 24 2 24C0.895431 24 0 23.1046 0 22C0 20.8954 0.895431 20 2 20C3.10457 20 4 20.8954 4 22Z" fill="#E6EEEF"/>
<path d="M24 22C24 23.1046 23.1046 24 22 24C20.8954 24 20 23.1046 20 22C20 20.8954 20.8954 20 22 20C23.1046 20 24 20.8954 24 22Z" fill="#E6EEEF"/>
<path d="M44 22C44 23.1046 43.1046 24 42 24C40.8954 24 40 23.1046 40 22C40 20.8954 40.8954 20 42 20C43.1046 20 44 20.8954 44 22Z" fill="#E6EEEF"/>
<path d="M64 22C64 23.1046 63.1046 24 62 24C60.8954 24 60 23.1046 60 22C60 20.8954 60.8954 20 62 20C63.1046 20 64 20.8954 64 22Z" fill="#E6EEEF"/>
<path d="M4 42C4 43.1046 3.10457 44 2 44C0.895431 44 0 43.1046 0 42C0 40.8954 0.895431 40 2 40C3.10457 40 4 40.8954 4 42Z" fill="#E6EEEF"/>
<path d="M24 42C24 43.1046 23.1046 44 22 44C20.8954 44 20 43.1046 20 42C20 40.8954 20.8954 40 22 40C23.1046 40 24 40.8954 24 42Z" fill="#E6EEEF"/>
<path d="M44 42C44 43.1046 43.1046 44 42 44C40.8954 44 40 43.1046 40 42C40 40.8954 40.8954 40 42 40C43.1046 40 44 40.8954 44 42Z" fill="#E6EEEF"/>
<path d="M64 42C64 43.1046 63.1046 44 62 44C60.8954 44 60 43.1046 60 42C60 40.8954 60.8954 40 62 40C63.1046 40 64 40.8954 64 42Z" fill="#E6EEEF"/>
<path d="M4 62C4 63.1046 3.10457 64 2 64C0.895431 64 0 63.1046 0 62C0 60.8954 0.895431 60 2 60C3.10457 60 4 60.8954 4 62Z" fill="#E6EEEF"/>
<path d="M24 62C24 63.1046 23.1046 64 22 64C20.8954 64 20 63.1046 20 62C20 60.8954 20.8954 60 22 60C23.1046 60 24 60.8954 24 62Z" fill="#E6EEEF"/>
<path d="M44 62C44 63.1046 43.1046 64 42 64C40.8954 64 40 63.1046 40 62C40 60.8954 40.8954 60 42 60C43.1046 60 44 60.8954 44 62Z" fill="#E6EEEF"/>
<path d="M64 62C64 63.1046 63.1046 64 62 64C60.8954 64 60 63.1046 60 62C60 60.8954 60.8954 60 62 60C63.1046 60 64 60.8954 64 62Z" fill="#E6EEEF"/>
<path d="M4 82C4 83.1046 3.10457 84 2 84C0.895431 84 0 83.1046 0 82C0 80.8954 0.895431 80 2 80C3.10457 80 4 80.8954 4 82Z" fill="#E6EEEF"/>
<path d="M24 82C24 83.1046 23.1046 84 22 84C20.8954 84 20 83.1046 20 82C20 80.8954 20.8954 80 22 80C23.1046 80 24 80.8954 24 82Z" fill="#E6EEEF"/>
<path d="M44 82C44 83.1046 43.1046 84 42 84C40.8954 84 40 83.1046 40 82C40 80.8954 40.8954 80 42 80C43.1046 80 44 80.8954 44 82Z" fill="#E6EEEF"/>
<path d="M64 82C64 83.1046 63.1046 84 62 84C60.8954 84 60 83.1046 60 82C60 80.8954 60.8954 80 62 80C63.1046 80 64 80.8954 64 82Z" fill="#E6EEEF"/>
<path d="M4 102C4 103.105 3.10457 104 2 104C0.895431 104 0 103.105 0 102C0 100.895 0.895431 100 2 100C3.10457 100 4 100.895 4 102Z" fill="#E6EEEF"/>
<path d="M24 102C24 103.105 23.1046 104 22 104C20.8954 104 20 103.105 20 102C20 100.895 20.8954 100 22 100C23.1046 100 24 100.895 24 102Z" fill="#E6EEEF"/>
<path d="M44 102C44 103.105 43.1046 104 42 104C40.8954 104 40 103.105 40 102C40 100.895 40.8954 100 42 100C43.1046 100 44 100.895 44 102Z" fill="#E6EEEF"/>
<path d="M64 102C64 103.105 63.1046 104 62 104C60.8954 104 60 103.105 60 102C60 100.895 60.8954 100 62 100C63.1046 100 64 100.895 64 102Z" fill="#E6EEEF"/>
<path d="M4 122C4 123.105 3.10457 124 2 124C0.895431 124 0 123.105 0 122C0 120.895 0.895431 120 2 120C3.10457 120 4 120.895 4 122Z" fill="#E6EEEF"/>
<path d="M24 122C24 123.105 23.1046 124 22 124C20.8954 124 20 123.105 20 122C20 120.895 20.8954 120 22 120C23.1046 120 24 120.895 24 122Z" fill="#E6EEEF"/>
<path d="M44 122C44 123.105 43.1046 124 42 124C40.8954 124 40 123.105 40 122C40 120.895 40.8954 120 42 120C43.1046 120 44 120.895 44 122Z" fill="#E6EEEF"/>
<path d="M64 122C64 123.105 63.1046 124 62 124C60.8954 124 60 123.105 60 122C60 120.895 60.8954 120 62 120C63.1046 120 64 120.895 64 122Z" fill="#E6EEEF"/>
<path d="M4 142C4 143.105 3.10457 144 2 144C0.895431 144 0 143.105 0 142C0 140.895 0.895431 140 2 140C3.10457 140 4 140.895 4 142Z" fill="#E6EEEF"/>
<path d="M24 142C24 143.105 23.1046 144 22 144C20.8954 144 20 143.105 20 142C20 140.895 20.8954 140 22 140C23.1046 140 24 140.895 24 142Z" fill="#E6EEEF"/>
<path d="M44 142C44 143.105 43.1046 144 42 144C40.8954 144 40 143.105 40 142C40 140.895 40.8954 140 42 140C43.1046 140 44 140.895 44 142Z" fill="#E6EEEF"/>
<path d="M64 142C64 143.105 63.1046 144 62 144C60.8954 144 60 143.105 60 142C60 140.895 60.8954 140 62 140C63.1046 140 64 140.895 64 142Z" fill="#E6EEEF"/>
<path d="M4 162C4 163.105 3.10457 164 2 164C0.895431 164 0 163.105 0 162C0 160.895 0.895431 160 2 160C3.10457 160 4 160.895 4 162Z" fill="#E6EEEF"/>
<path d="M24 162C24 163.105 23.1046 164 22 164C20.8954 164 20 163.105 20 162C20 160.895 20.8954 160 22 160C23.1046 160 24 160.895 24 162Z" fill="#E6EEEF"/>
<path d="M44 162C44 163.105 43.1046 164 42 164C40.8954 164 40 163.105 40 162C40 160.895 40.8954 160 42 160C43.1046 160 44 160.895 44 162Z" fill="#E6EEEF"/>
<path d="M64 162C64 163.105 63.1046 164 62 164C60.8954 164 60 163.105 60 162C60 160.895 60.8954 160 62 160C63.1046 160 64 160.895 64 162Z" fill="#E6EEEF"/>
</g>
<defs>
<clipPath id="clip0_113_1207">
<rect width="64" height="164" fill="white"/>
</clipPath>
</defs>
</svg>
