<svg width="24" height="24" viewBox="0 0 24 24" fill="none" xmlns="http://www.w3.org/2000/svg">
<g clip-path="url(#clip0_130_7228)">
<g clip-path="url(#clip1_130_7228)">
<path fill-rule="evenodd" clip-rule="evenodd" d="M2.66667 24H21.3333C22.8061 24 24 22.8061 24 21.3333V2.66667C24 1.19391 22.8061 0 21.3333 0H2.66667C1.19391 0 0 1.19391 0 2.66667V21.3333C0 22.8061 1.19391 24 2.66667 24Z" fill="black"/>
<path fill-rule="evenodd" clip-rule="evenodd" d="M20.6667 20.6666H17.1052V14.6006C17.1052 12.9375 16.4733 12.0081 15.1569 12.0081C13.7249 12.0081 12.9767 12.9753 12.9767 14.6006V20.6666H9.54449V9.11103H12.9767V10.6676C12.9767 10.6676 14.0087 8.75799 16.4609 8.75799C18.9119 8.75799 20.6667 10.2547 20.6667 13.3503V20.6666ZM5.44982 7.59792C4.28073 7.59792 3.33337 6.64314 3.33337 5.46559C3.33337 4.28804 4.28073 3.33325 5.44982 3.33325C6.61892 3.33325 7.56571 4.28804 7.56571 5.46559C7.56571 6.64314 6.61892 7.59792 5.44982 7.59792ZM3.67756 20.6666H7.25651V9.11103H3.67756V20.6666Z" fill="white"/>
</g>
</g>
<defs>
<clipPath id="clip0_130_7228">
<rect width="24" height="24" fill="white"/>
</clipPath>
<clipPath id="clip1_130_7228">
<rect width="24" height="24" fill="white"/>
</clipPath>
</defs>
</svg>
